<svg width="115" height="24" viewBox="0 0 115 24" fill="none" xmlns="http://www.w3.org/2000/svg">
<mask id="path-1-outside-1_297080_7247" maskUnits="userSpaceOnUse" x="-2" y="4.5" width="46" height="15" fill="black">
<rect fill="white" x="-2" y="4.5" width="46" height="15"/>
<path d="M5.706 5.756H8.01L9.468 9.986L10.944 5.756H13.23L11.034 11.57L12.654 15.638L16.272 5.72H18.972L13.86 18.5H11.718L9.468 13.136L7.236 18.5H5.094L0 5.72H2.664L6.3 15.638L7.884 11.57L5.706 5.756ZM29.6952 16.322V18.5H20.8212V5.72H29.5332V7.898H23.3052V10.976H28.6872V12.992H23.3052V16.322H29.6952ZM42.4678 15.206C42.4678 15.926 42.2818 16.532 41.9098 17.024C41.5378 17.504 41.0338 17.87 40.3978 18.122C39.7738 18.374 39.0898 18.5 38.3458 18.5H32.1718V5.72H39.0118C39.6118 5.72 40.1278 5.882 40.5598 6.206C41.0038 6.518 41.3398 6.926 41.5678 7.43C41.8078 7.922 41.9278 8.438 41.9278 8.978C41.9278 9.59 41.7718 10.172 41.4598 10.724C41.1478 11.276 40.6918 11.684 40.0918 11.948C40.8238 12.164 41.3998 12.554 41.8198 13.118C42.2518 13.682 42.4678 14.378 42.4678 15.206ZM39.9658 14.738C39.9658 14.414 39.8998 14.126 39.7678 13.874C39.6358 13.61 39.4558 13.406 39.2278 13.262C39.0118 13.106 38.7598 13.028 38.4718 13.028H34.6558V16.394H38.3458C38.6458 16.394 38.9158 16.322 39.1558 16.178C39.4078 16.022 39.6058 15.818 39.7498 15.566C39.8938 15.314 39.9658 15.038 39.9658 14.738ZM34.6558 7.844V11.066H37.9678C38.2438 11.066 38.4958 11 38.7238 10.868C38.9518 10.736 39.1318 10.55 39.2638 10.31C39.4078 10.07 39.4798 9.782 39.4798 9.446C39.4798 9.122 39.4138 8.84 39.2818 8.6C39.1618 8.36 38.9938 8.174 38.7778 8.042C38.5738 7.91 38.3398 7.844 38.0758 7.844H34.6558Z"/>
</mask>
<path d="M5.706 5.756H8.01L9.468 9.986L10.944 5.756H13.23L11.034 11.57L12.654 15.638L16.272 5.72H18.972L13.86 18.5H11.718L9.468 13.136L7.236 18.5H5.094L0 5.72H2.664L6.3 15.638L7.884 11.57L5.706 5.756ZM29.6952 16.322V18.5H20.8212V5.72H29.5332V7.898H23.3052V10.976H28.6872V12.992H23.3052V16.322H29.6952ZM42.4678 15.206C42.4678 15.926 42.2818 16.532 41.9098 17.024C41.5378 17.504 41.0338 17.87 40.3978 18.122C39.7738 18.374 39.0898 18.5 38.3458 18.5H32.1718V5.72H39.0118C39.6118 5.72 40.1278 5.882 40.5598 6.206C41.0038 6.518 41.3398 6.926 41.5678 7.43C41.8078 7.922 41.9278 8.438 41.9278 8.978C41.9278 9.59 41.7718 10.172 41.4598 10.724C41.1478 11.276 40.6918 11.684 40.0918 11.948C40.8238 12.164 41.3998 12.554 41.8198 13.118C42.2518 13.682 42.4678 14.378 42.4678 15.206ZM39.9658 14.738C39.9658 14.414 39.8998 14.126 39.7678 13.874C39.6358 13.61 39.4558 13.406 39.2278 13.262C39.0118 13.106 38.7598 13.028 38.4718 13.028H34.6558V16.394H38.3458C38.6458 16.394 38.9158 16.322 39.1558 16.178C39.4078 16.022 39.6058 15.818 39.7498 15.566C39.8938 15.314 39.9658 15.038 39.9658 14.738ZM34.6558 7.844V11.066H37.9678C38.2438 11.066 38.4958 11 38.7238 10.868C38.9518 10.736 39.1318 10.55 39.2638 10.31C39.4078 10.07 39.4798 9.782 39.4798 9.446C39.4798 9.122 39.4138 8.84 39.2818 8.6C39.1618 8.36 38.9938 8.174 38.7778 8.042C38.5738 7.91 38.3398 7.844 38.0758 7.844H34.6558Z" fill="#4D5AE5"/>
<path d="M5.706 5.756V4.756H4.26352L4.76955 6.10681L5.706 5.756ZM8.01 5.756L8.95542 5.43013L8.72305 4.756H8.01V5.756ZM9.468 9.986L8.52258 10.3119L9.4622 13.0379L10.4122 10.3155L9.468 9.986ZM10.944 5.756V4.756H10.2338L9.99983 5.42654L10.944 5.756ZM13.23 5.756L14.1655 6.10934L14.6767 4.756H13.23V5.756ZM11.034 11.57L10.0985 11.2167L9.96143 11.5796L10.105 11.94L11.034 11.57ZM12.654 15.638L11.725 16.008L12.695 18.4437L13.5934 15.9807L12.654 15.638ZM16.272 5.72V4.72H15.5723L15.3326 5.3773L16.272 5.72ZM18.972 5.72L19.9005 6.09139L20.449 4.72H18.972V5.72ZM13.86 18.5V19.5H14.537L14.7885 18.8714L13.86 18.5ZM11.718 18.5L10.7958 18.8868L11.0531 19.5H11.718V18.5ZM9.468 13.136L10.3902 12.7492L9.46429 10.5419L8.54474 12.7518L9.468 13.136ZM7.236 18.5V19.5H7.90301L8.15926 18.8842L7.236 18.5ZM5.094 18.5L4.16507 18.8703L4.41608 19.5H5.094V18.5ZM0 5.72V4.72H-1.4751L-0.928927 6.09026L0 5.72ZM2.664 5.72L3.60289 5.37579L3.36248 4.72H2.664V5.72ZM6.3 15.638L5.36111 15.9822L6.27182 18.4664L7.23185 16.0008L6.3 15.638ZM7.884 11.57L8.81585 11.9328L8.95445 11.5769L8.82045 11.2192L7.884 11.57ZM5.706 6.756H8.01V4.756H5.706V6.756ZM7.06458 6.08187L8.52258 10.3119L10.4134 9.66013L8.95542 5.43013L7.06458 6.08187ZM10.4122 10.3155L11.8882 6.08546L9.99983 5.42654L8.52383 9.65654L10.4122 10.3155ZM10.944 6.756H13.23V4.756H10.944V6.756ZM12.2945 5.40266L10.0985 11.2167L11.9695 11.9233L14.1655 6.10934L12.2945 5.40266ZM10.105 11.94L11.725 16.008L13.583 15.268L11.963 11.2L10.105 11.94ZM13.5934 15.9807L17.2114 6.0627L15.3326 5.3773L11.7146 15.2953L13.5934 15.9807ZM16.272 6.72H18.972V4.72H16.272V6.72ZM18.0435 5.34861L12.9315 18.1286L14.7885 18.8714L19.9005 6.09139L18.0435 5.34861ZM13.86 17.5H11.718V19.5H13.86V17.5ZM12.6402 18.1132L10.3902 12.7492L8.54584 13.5228L10.7958 18.8868L12.6402 18.1132ZM8.54474 12.7518L6.31274 18.1158L8.15926 18.8842L10.3913 13.5202L8.54474 12.7518ZM7.236 17.5H5.094V19.5H7.236V17.5ZM6.02293 18.1297L0.928927 5.34974L-0.928927 6.09026L4.16507 18.8703L6.02293 18.1297ZM0 6.72H2.664V4.72H0V6.72ZM1.72511 6.0642L5.36111 15.9822L7.23889 15.2938L3.60289 5.37579L1.72511 6.0642ZM7.23185 16.0008L8.81585 11.9328L6.95215 11.2072L5.36815 15.2752L7.23185 16.0008ZM8.82045 11.2192L6.64245 5.40519L4.76955 6.10681L6.94755 11.9208L8.82045 11.2192ZM29.6952 16.322H30.6952V15.322H29.6952V16.322ZM29.6952 18.5V19.5H30.6952V18.5H29.6952ZM20.8212 18.5H19.8212V19.5H20.8212V18.5ZM20.8212 5.72V4.72H19.8212V5.72H20.8212ZM29.5332 5.72H30.5332V4.72H29.5332V5.72ZM29.5332 7.898V8.898H30.5332V7.898H29.5332ZM23.3052 7.898V6.898H22.3052V7.898H23.3052ZM23.3052 10.976H22.3052V11.976H23.3052V10.976ZM28.6872 10.976H29.6872V9.976H28.6872V10.976ZM28.6872 12.992V13.992H29.6872V12.992H28.6872ZM23.3052 12.992V11.992H22.3052V12.992H23.3052ZM23.3052 16.322H22.3052V17.322H23.3052V16.322ZM28.6952 16.322V18.5H30.6952V16.322H28.6952ZM29.6952 17.5H20.8212V19.5H29.6952V17.5ZM21.8212 18.5V5.72H19.8212V18.5H21.8212ZM20.8212 6.72H29.5332V4.72H20.8212V6.72ZM28.5332 5.72V7.898H30.5332V5.72H28.5332ZM29.5332 6.898H23.3052V8.898H29.5332V6.898ZM22.3052 7.898V10.976H24.3052V7.898H22.3052ZM23.3052 11.976H28.6872V9.976H23.3052V11.976ZM27.6872 10.976V12.992H29.6872V10.976H27.6872ZM28.6872 11.992H23.3052V13.992H28.6872V11.992ZM22.3052 12.992V16.322H24.3052V12.992H22.3052ZM23.3052 17.322H29.6952V15.322H23.3052V17.322ZM41.9098 17.024L42.7002 17.6366L42.7074 17.6271L41.9098 17.024ZM40.3978 18.122L40.0294 17.1923L40.0233 17.1948L40.3978 18.122ZM32.1718 18.5H31.1718V19.5H32.1718V18.5ZM32.1718 5.72V4.72H31.1718V5.72H32.1718ZM40.5598 6.206L39.9598 7.006L39.9722 7.01529L39.9848 7.02419L40.5598 6.206ZM41.5678 7.43L40.6567 7.84217L40.6626 7.85539L40.669 7.86842L41.5678 7.43ZM40.0918 11.948L39.689 11.0327L37.1871 12.1335L39.8087 12.9071L40.0918 11.948ZM41.8198 13.118L41.0177 13.7153L41.0259 13.7261L41.8198 13.118ZM39.7678 13.874L38.8733 14.3212L38.8776 14.3297L38.8819 14.338L39.7678 13.874ZM39.2278 13.262L38.6423 14.0727L38.6675 14.0909L38.6938 14.1075L39.2278 13.262ZM34.6558 13.028V12.028H33.6558V13.028H34.6558ZM34.6558 16.394H33.6558V17.394H34.6558V16.394ZM39.1558 16.178L39.6703 17.0356L39.6821 17.0283L39.1558 16.178ZM39.7498 15.566L40.618 16.0621V16.0621L39.7498 15.566ZM34.6558 7.844V6.844H33.6558V7.844H34.6558ZM34.6558 11.066H33.6558V12.066H34.6558V11.066ZM39.2638 10.31L38.4063 9.7955L38.3966 9.81162L38.3876 9.82808L39.2638 10.31ZM39.2818 8.6L38.3873 9.04721L38.3961 9.06474L38.4056 9.08192L39.2818 8.6ZM38.7778 8.042L38.2345 8.88157L38.2453 8.88857L38.2563 8.89528L38.7778 8.042ZM41.4678 15.206C41.4678 15.7461 41.3317 16.1305 41.1121 16.4209L42.7074 17.6271C43.2318 16.9335 43.4678 16.1059 43.4678 15.206H41.4678ZM41.1194 16.4114C40.8705 16.7326 40.5204 16.9978 40.0294 17.1923L40.7661 19.0517C41.5471 18.7422 42.2051 18.2754 42.7002 17.6366L41.1194 16.4114ZM40.0233 17.1948C39.5303 17.3939 38.975 17.5 38.3458 17.5V19.5C39.2045 19.5 40.0173 19.3541 40.7722 19.0492L40.0233 17.1948ZM38.3458 17.5H32.1718V19.5H38.3458V17.5ZM33.1718 18.5V5.72H31.1718V18.5H33.1718ZM32.1718 6.72H39.0118V4.72H32.1718V6.72ZM39.0118 6.72C39.4207 6.72 39.7201 6.82622 39.9598 7.006L41.1598 5.406C40.5355 4.93777 39.8028 4.72 39.0118 4.72V6.72ZM39.9848 7.02419C40.2795 7.23128 40.5009 7.49782 40.6567 7.84217L42.4789 7.01783C42.1786 6.35418 41.728 5.80472 41.1347 5.38781L39.9848 7.02419ZM40.669 7.86842C40.8433 8.22581 40.9278 8.59208 40.9278 8.978H42.9278C42.9278 8.28392 42.7722 7.61819 42.4665 6.99158L40.669 7.86842ZM40.9278 8.978C40.9278 9.4112 40.8195 9.82442 40.5892 10.2319L42.3303 11.2161C42.724 10.5196 42.9278 9.7688 42.9278 8.978H40.9278ZM40.5892 10.2319C40.3872 10.5894 40.0987 10.8524 39.689 11.0327L40.4945 12.8633C41.2849 12.5156 41.9084 11.9626 42.3303 11.2161L40.5892 10.2319ZM39.8087 12.9071C40.3519 13.0674 40.7382 13.3399 41.0177 13.7153L42.6218 12.5207C42.0613 11.7681 41.2956 11.2606 40.3748 10.9889L39.8087 12.9071ZM41.0259 13.7261C41.3029 14.0877 41.4678 14.56 41.4678 15.206H43.4678C43.4678 14.196 43.2006 13.2763 42.6136 12.5099L41.0259 13.7261ZM40.9658 14.738C40.9658 14.275 40.8704 13.824 40.6536 13.41L38.8819 14.338C38.9291 14.428 38.9658 14.553 38.9658 14.738H40.9658ZM40.6622 13.4268C40.4566 13.0156 40.1584 12.667 39.7618 12.4165L38.6938 14.1075C38.7532 14.145 38.8149 14.2044 38.8733 14.3212L40.6622 13.4268ZM39.8133 12.4513C39.4128 12.1621 38.952 12.028 38.4718 12.028V14.028C38.5675 14.028 38.6107 14.0499 38.6423 14.0727L39.8133 12.4513ZM38.4718 12.028H34.6558V14.028H38.4718V12.028ZM33.6558 13.028V16.394H35.6558V13.028H33.6558ZM34.6558 17.394H38.3458V15.394H34.6558V17.394ZM38.3458 17.394C38.8135 17.394 39.2636 17.2795 39.6703 17.0355L38.6413 15.3205C38.5679 15.3645 38.478 15.394 38.3458 15.394V17.394ZM39.6821 17.0283C40.0727 16.7865 40.3895 16.462 40.618 16.0621L38.8815 15.0699C38.822 15.174 38.7428 15.2575 38.6294 15.3277L39.6821 17.0283ZM40.618 16.0621C40.8513 15.6538 40.9658 15.2059 40.9658 14.738H38.9658C38.9658 14.8701 38.9362 14.9742 38.8815 15.0699L40.618 16.0621ZM33.6558 7.844V11.066H35.6558V7.844H33.6558ZM34.6558 12.066H37.9678V10.066H34.6558V12.066ZM37.9678 12.066C38.411 12.066 38.8372 11.9579 39.2248 11.7334L38.2227 10.0026C38.1544 10.0421 38.0765 10.066 37.9678 10.066V12.066ZM39.2248 11.7334C39.6169 11.5064 39.9238 11.1849 40.14 10.7919L38.3876 9.82808C38.3397 9.91509 38.2866 9.96557 38.2227 10.0026L39.2248 11.7334ZM40.1213 10.8245C40.3756 10.4005 40.4798 9.92675 40.4798 9.446H38.4798C38.4798 9.63725 38.4399 9.73949 38.4063 9.7955L40.1213 10.8245ZM40.4798 9.446C40.4798 8.98436 40.3849 8.53059 40.158 8.11808L38.4056 9.08192C38.4427 9.14941 38.4798 9.25964 38.4798 9.446H40.4798ZM40.1762 8.15279C39.9776 7.75567 39.6849 7.4244 39.2992 7.18872L38.2563 8.89528C38.3027 8.9236 38.3459 8.96433 38.3873 9.04721L40.1762 8.15279ZM39.321 7.20243C38.9412 6.95666 38.5152 6.844 38.0758 6.844V8.844C38.1644 8.844 38.2063 8.86334 38.2345 8.88157L39.321 7.20243ZM38.0758 6.844H34.6558V8.844H38.0758V6.844Z" fill="black" mask="url(#path-1-outside-1_297080_7247)"/>
<path d="M52.946 9.068C52.862 8.984 52.706 8.87 52.478 8.726C52.262 8.582 51.992 8.444 51.668 8.312C51.356 8.18 51.014 8.066 50.642 7.97C50.27 7.862 49.892 7.808 49.508 7.808C48.836 7.808 48.326 7.934 47.978 8.186C47.642 8.438 47.474 8.792 47.474 9.248C47.474 9.596 47.582 9.872 47.798 10.076C48.014 10.28 48.338 10.454 48.77 10.598C49.202 10.742 49.742 10.898 50.39 11.066C51.23 11.27 51.956 11.522 52.568 11.822C53.192 12.11 53.666 12.494 53.99 12.974C54.326 13.442 54.494 14.066 54.494 14.846C54.494 15.53 54.368 16.118 54.116 16.61C53.864 17.09 53.516 17.48 53.072 17.78C52.628 18.08 52.124 18.302 51.56 18.446C50.996 18.578 50.396 18.644 49.76 18.644C49.124 18.644 48.488 18.578 47.852 18.446C47.216 18.314 46.604 18.128 46.016 17.888C45.428 17.636 44.888 17.336 44.396 16.988L45.494 14.846C45.602 14.954 45.794 15.098 46.07 15.278C46.346 15.446 46.682 15.62 47.078 15.8C47.474 15.968 47.906 16.112 48.374 16.232C48.842 16.352 49.316 16.412 49.796 16.412C50.468 16.412 50.978 16.298 51.326 16.07C51.674 15.842 51.848 15.518 51.848 15.098C51.848 14.714 51.71 14.414 51.434 14.198C51.158 13.982 50.774 13.796 50.282 13.64C49.79 13.472 49.208 13.292 48.536 13.1C47.732 12.872 47.06 12.62 46.52 12.344C45.98 12.056 45.578 11.696 45.314 11.264C45.05 10.832 44.918 10.292 44.918 9.644C44.918 8.768 45.122 8.036 45.53 7.448C45.95 6.848 46.514 6.398 47.222 6.098C47.93 5.786 48.716 5.63 49.58 5.63C50.18 5.63 50.744 5.696 51.272 5.828C51.812 5.96 52.316 6.134 52.784 6.35C53.252 6.566 53.672 6.8 54.044 7.052L52.946 9.068ZM66.4691 7.898H62.3831V18.5H59.9171V7.898H55.8311V5.72H66.4691V7.898ZM74.0136 18.59C72.9936 18.59 72.1236 18.422 71.4036 18.086C70.6956 17.738 70.1196 17.264 69.6756 16.664C69.2436 16.064 68.9256 15.386 68.7216 14.63C68.5176 13.862 68.4156 13.064 68.4156 12.236V5.72H70.8996V12.236C70.8996 12.764 70.9476 13.28 71.0436 13.784C71.1516 14.276 71.3256 14.72 71.5656 15.116C71.8056 15.512 72.1236 15.824 72.5196 16.052C72.9156 16.28 73.4076 16.394 73.9956 16.394C74.5956 16.394 75.0936 16.28 75.4896 16.052C75.8976 15.812 76.2156 15.494 76.4436 15.098C76.6836 14.702 76.8576 14.258 76.9656 13.766C77.0736 13.262 77.1276 12.752 77.1276 12.236V5.72H79.5936V12.236C79.5936 13.112 79.4856 13.934 79.2696 14.702C79.0656 15.47 78.7356 16.148 78.2796 16.736C77.8356 17.312 77.2596 17.768 76.5516 18.104C75.8436 18.428 74.9976 18.59 74.0136 18.59ZM82.6356 18.5V5.72H87.2796C88.6716 5.72 89.8356 6.008 90.7716 6.584C91.7076 7.148 92.4096 7.916 92.8776 8.888C93.3456 9.848 93.5796 10.916 93.5796 12.092C93.5796 13.388 93.3216 14.516 92.8056 15.476C92.2896 16.436 91.5576 17.18 90.6096 17.708C89.6736 18.236 88.5636 18.5 87.2796 18.5H82.6356ZM91.0776 12.092C91.0776 11.264 90.9276 10.538 90.6276 9.914C90.3276 9.278 89.8956 8.786 89.3316 8.438C88.7676 8.078 88.0836 7.898 87.2796 7.898H85.1196V16.322H87.2796C88.0956 16.322 88.7856 16.142 89.3496 15.782C89.9136 15.41 90.3396 14.906 90.6276 14.27C90.9276 13.622 91.0776 12.896 91.0776 12.092ZM96.0604 18.5V5.72H98.5444V18.5H96.0604ZM107.205 18.59C106.269 18.59 105.417 18.41 104.649 18.05C103.893 17.69 103.239 17.204 102.687 16.592C102.147 15.968 101.727 15.272 101.427 14.504C101.127 13.724 100.977 12.926 100.977 12.11C100.977 11.258 101.133 10.448 101.445 9.68C101.769 8.9 102.207 8.21 102.759 7.61C103.323 6.998 103.983 6.518 104.739 6.17C105.507 5.81 106.347 5.63 107.259 5.63C108.183 5.63 109.023 5.816 109.779 6.188C110.547 6.56 111.201 7.058 111.741 7.682C112.281 8.306 112.701 9.002 113.001 9.77C113.301 10.538 113.451 11.33 113.451 12.146C113.451 12.986 113.295 13.796 112.983 14.576C112.671 15.344 112.233 16.034 111.669 16.646C111.117 17.246 110.457 17.72 109.689 18.068C108.933 18.416 108.105 18.59 107.205 18.59ZM103.497 12.11C103.497 12.662 103.581 13.196 103.749 13.712C103.917 14.228 104.157 14.69 104.469 15.098C104.793 15.494 105.183 15.812 105.639 16.052C106.107 16.28 106.635 16.394 107.223 16.394C107.823 16.394 108.357 16.274 108.825 16.034C109.293 15.782 109.683 15.452 109.995 15.044C110.307 14.624 110.541 14.162 110.697 13.658C110.865 13.142 110.949 12.626 110.949 12.11C110.949 11.558 110.859 11.03 110.679 10.526C110.511 10.01 110.265 9.554 109.941 9.158C109.629 8.75 109.239 8.432 108.771 8.204C108.315 7.964 107.799 7.844 107.223 7.844C106.611 7.844 106.071 7.97 105.603 8.222C105.147 8.462 104.763 8.786 104.451 9.194C104.139 9.602 103.899 10.058 103.731 10.562C103.575 11.066 103.497 11.582 103.497 12.11Z" fill="#2E2F42"/>
</svg>
